<svg xmlns="http://www.w3.org/2000/svg" viewBox="0 0 200 200"><defs><style>.cls-1{fill:#ed1c24;}.cls-2{fill:#fff;}</style></defs><title>web icons Digitalistic [Converted]</title><g id="Layer_1" data-name="Layer 1"><circle class="cls-1" cx="100" cy="100" r="95"/><path class="cls-2" d="M121.86,149.41a2.56,2.56,0,0,0-2.79-.65A52.72,52.72,0,0,1,100,152.33a53.74,53.74,0,0,1-17.77-3,2.56,2.56,0,0,0-2.65.62h0a2.58,2.58,0,0,0,1,4.26,57.74,57.74,0,0,0,19.32,3.38,56.53,56.53,0,0,0,21.07-4,2.58,2.58,0,0,0,.93-4.16Z"/><path class="cls-2" d="M117.85,44.19h-3.19a.64.64,0,0,1,0-1.28h3.19a.6.6,0,0,1,.64.64A.68.68,0,0,1,117.85,44.19Z"/><path class="cls-2" d="M113.39,40.75a1,1,0,0,1-.51-.25.78.78,0,0,1,0-1l2.3-2.3c.13-.26.64-.26.89,0a.78.78,0,0,1,0,1l-2.3,2.3C113.77,40.62,113.64,40.75,113.39,40.75Z"/><path class="cls-2" d="M115.56,50.18a1,1,0,0,1-.51-.26l-2.3-2.3a.72.72,0,0,1,1-1l2.3,2.3a.78.78,0,0,1,0,1C116.07,50.18,115.81,50.18,115.56,50.18Z"/><path class="cls-2" d="M109.82,40.87V34.24a.65.65,0,0,0-.51-.64.61.61,0,0,0-.77.26A17.29,17.29,0,0,1,95.79,39h-8a2.9,2.9,0,0,0-2.42,1.28H83.8a.87.87,0,0,0-.89.89v5.1a.87.87,0,0,0,.89.89h1.4a3.88,3.88,0,0,0,1.66,1.15l4.21,11.09a1.11,1.11,0,0,0,1,.77h4.08a1.3,1.3,0,0,0,1-.64,1.2,1.2,0,0,0-.13-1.15L94.9,55.92l-2.81-7.4h3.7a17.29,17.29,0,0,1,12.75,5.1,1,1,0,0,0,.51.26h.26a.85.85,0,0,0,.51-.64V46.61A2.77,2.77,0,0,0,112,43.81,2.91,2.91,0,0,0,109.82,40.87Z"/><path class="cls-2" d="M49.35,118.9a2.55,2.55,0,0,0,.66-2.62,53.62,53.62,0,0,1-2.81-16.75A52.84,52.84,0,0,1,76.55,52.26,2.55,2.55,0,0,0,77.94,50v0a2.57,2.57,0,0,0-3.69-2.31A57.88,57.88,0,0,0,42.11,99.41a56.52,56.52,0,0,0,3,18.49,2.57,2.57,0,0,0,4.22,1Z"/><path class="cls-2" d="M152.67,99.41a54.68,54.68,0,0,1-2.24,15.27,2.57,2.57,0,0,0,.66,2.53l.06.06a2.59,2.59,0,0,0,4.3-1.05,58.16,58.16,0,0,0-30.59-69.14,2.59,2.59,0,0,0-3.69,2.35h0a2.56,2.56,0,0,0,1.44,2.32A53,53,0,0,1,152.67,99.41Z"/><path class="cls-2" d="M155.22,131.67a14.38,14.38,0,0,0-27.8,7.4,14,14,0,0,0,6.12,8.42l-3.83,5.74,15.17-4A14.3,14.3,0,0,0,155.22,131.67Zm-12.88,9.05h-7.65v-2.3h7.65Zm6.5-4.59H134.69v-2.3H149v2.3Zm0-4.34H134.69v-2.3H149v2.3Z"/><path class="cls-2" d="M48.48,132.18h0A2.55,2.55,0,0,1,51,134.73v8.8a2.55,2.55,0,0,1-2.55,2.55h0a2.55,2.55,0,0,1-2.55-2.55v-8.8A2.55,2.55,0,0,1,48.48,132.18Z"/><path class="cls-2" d="M53.58,132.05l6.79-7.71a1.92,1.92,0,0,1,1.82-.61h0a1.92,1.92,0,0,1,1.46,2.46l-.86,2.72a1.92,1.92,0,0,0,1.83,2.5h6.23a1.92,1.92,0,0,1,1.88,2.31l-2.26,10.82a1.92,1.92,0,0,1-1.88,1.53h-15"/><path class="cls-2" d="M123.21,76.58H77.81c-5,0-9.05,4.46-9.05,9.95v27.54c0,5.48,4.08,9.95,9.05,9.95h45.4c5,0,9.05-4.46,9.05-9.95V86.53C132.26,81,128.18,76.58,123.21,76.58Zm-45.4,3.57h45.4c3.06,0,5.48,2.93,5.48,6.38v1.66H72.33V86.53C72.33,83.08,74.75,80.15,77.81,80.15Zm45.4,40.42H77.81c-3.06,0-5.48-2.93-5.48-6.38V91.75h56.36V114.2C128.69,117.77,126.27,120.57,123.21,120.57Z"/><circle class="cls-2" cx="107.14" cy="84.1" r="2.17"/><circle class="cls-2" cx="113.9" cy="84.1" r="2.17"/><circle class="cls-2" cx="121.17" cy="84.1" r="2.17"/><rect class="cls-2" x="86.36" y="97.24" width="10.58" height="10.58"/><rect class="cls-2" x="86.36" y="111.52" width="28.31" height="3.57"/><rect class="cls-2" x="100.51" y="97.24" width="14.15" height="3.83"/><rect class="cls-2" x="100.51" y="104.12" width="14.15" height="3.83"/></g></svg>