<svg xmlns="http://www.w3.org/2000/svg" viewBox="0 0 200 200"><defs><style>.cls-1{fill:#ed1c24;}.cls-2{fill:#fff;}</style></defs><title>web icons Digitalistic [Converted]</title><g id="Layer_1" data-name="Layer 1"><circle class="cls-1" cx="100" cy="100" r="95"/><path class="cls-2" d="M140.45,107.54H98.62a2.69,2.69,0,0,0-2.69,2.69v26.94a2.69,2.69,0,0,0,2.69,2.69h41.83a2.69,2.69,0,0,0,2.69-2.69V110.23A2.69,2.69,0,0,0,140.45,107.54Zm-2.69,26.94H101.3V112.92h36.45v21.57Z"/><path class="cls-2" d="M161.24,75.27,149.75,63.55V51.84A2.71,2.71,0,0,0,147,49.12H53a2.71,2.71,0,0,0-2.71,2.71V63.55L38.78,75.26a2.72,2.72,0,0,0-.78,1.9V87.38A14.55,14.55,0,0,0,45,99.8v48.36a2.71,2.71,0,0,0,2.71,2.71H61.32A2.69,2.69,0,0,0,64,148.19V112.94a0,0,0,0,1,0,0H83.24a0,0,0,0,1,0,0v35.22A2.71,2.71,0,0,0,86,150.88h65.76a2.71,2.71,0,0,0,2.71-2.71v-48A14.56,14.56,0,0,0,162,87.38V77.15A2.68,2.68,0,0,0,161.24,75.27ZM55.66,54.5h88.67a0,0,0,0,1,0,0v7.4a0,0,0,0,1,0,0H55.66a0,0,0,0,1,0,0v-7.4A0,0,0,0,1,55.66,54.5Zm93.42,91H88.67a0,0,0,0,1,0,0V110.26a2.71,2.71,0,0,0-2.71-2.71H61.34a2.71,2.71,0,0,0-2.71,2.71v35.22a0,0,0,0,1,0,0H50.4a0,0,0,0,1,0,0V101.8a0,0,0,0,1,0,0,14.55,14.55,0,0,0,14-5.95,0,0,0,0,1,0,0,14.54,14.54,0,0,0,23.68,0,0,0,0,0,1,0,0,14.54,14.54,0,0,0,23.68,0,0,0,0,0,1,0,0,14.54,14.54,0,0,0,23.68,0,0,0,0,0,1,0,0,14.5,14.5,0,0,0,13.45,6,0,0,0,0,1,0,0V145.5Zm7.54-58.13a9.17,9.17,0,0,1-18.35.05,2.75,2.75,0,0,0-2.39-2.72,2.69,2.69,0,0,0-3,2.67,9.17,9.17,0,0,1-18.35.05,2.75,2.75,0,0,0-2.39-2.72,2.69,2.69,0,0,0-3,2.67,9.18,9.18,0,0,1-18.35.05,2.75,2.75,0,0,0-2.39-2.72,2.69,2.69,0,0,0-3,2.67,9.17,9.17,0,0,1-18.35.05,2.75,2.75,0,0,0-2.39-2.72,2.69,2.69,0,0,0-3,2.67,9.18,9.18,0,0,1-9.61,9.16,9.37,9.37,0,0,1-8.74-9.46V78.24L54.08,67.33h91.86l10.69,10.91v9.14Z"/></g></svg>