<svg xmlns="http://www.w3.org/2000/svg" viewBox="0 0 200 200"><defs><style>.cls-1{fill:#ed1c24;}.cls-2{fill:#fff;}</style></defs><title>web icons Digitalistic [Converted]</title><g id="Layer_1" data-name="Layer 1"><circle class="cls-1" cx="100" cy="100" r="95"/><path class="cls-2" d="M59.57,116.74H52.17a9.85,9.85,0,0,1-.71-19.68,21.93,21.93,0,0,0,2.73,7.28,2.16,2.16,0,1,0,3.7-2.21,17.71,17.71,0,0,1,24.68-24,2.16,2.16,0,1,0,2.32-3.64,21.89,21.89,0,0,0-7.72-3,26.27,26.27,0,0,1,41.42-5.57,2.16,2.16,0,1,0,3.05-3.05A30.53,30.53,0,0,0,72.51,71,22,22,0,0,0,51.09,92.76a14.17,14.17,0,0,0,1.07,28.29h7.41a2.16,2.16,0,0,0,0-4.31Z"/><path class="cls-2" d="M157.85,96.86a14,14,0,0,0-8.94-4.1,22,22,0,0,0-37.57-15.29,2.16,2.16,0,0,0,3.05,3A17.7,17.7,0,0,1,144.61,93s0,0,0,0a14.05,14.05,0,0,0-6.79,3.77,2.16,2.16,0,1,0,3.05,3.05,9.85,9.85,0,1,1,7,16.83H140.6a2.16,2.16,0,1,0,0,4.31h7.24a14.17,14.17,0,0,0,10-24.19Z"/><path class="cls-2" d="M74,129a2.16,2.16,0,1,0,0-4.31H72.51V120a2.16,2.16,0,1,0-4.31,0v4.64H66.69a2.16,2.16,0,1,0,0,4.31Z"/><path class="cls-2" d="M83,116.95a2.16,2.16,0,1,0,0,4.31h2.42a14.65,14.65,0,0,0,2.74,6.66l-1.73,1.74a2.16,2.16,0,0,0,3.06,3L91.25,131a14.49,14.49,0,0,0,6.6,2.75v2.45a2.16,2.16,0,0,0,4.31,0v-2.45a14.48,14.48,0,0,0,6.6-2.75l1.71,1.72a2.16,2.16,0,0,0,3.06-3l-1.73-1.74a14.65,14.65,0,0,0,2.74-6.66H117a2.16,2.16,0,0,0,0-4.31h-2.42a14.66,14.66,0,0,0-2.74-6.66l1.73-1.74a2.16,2.16,0,0,0-3.06-3l-1.71,1.72a14.48,14.48,0,0,0-6.6-2.75V102a2.16,2.16,0,1,0-4.31,0v2.46a14.49,14.49,0,0,0-6.6,2.75l-1.71-1.72a2.16,2.16,0,1,0-3.06,3l1.73,1.74a14.67,14.67,0,0,0-2.74,6.66H83Zm9.61-5.26a10.34,10.34,0,0,1,14.69,0,10.54,10.54,0,0,1,0,14.83,10.34,10.34,0,0,1-14.69,0,10.54,10.54,0,0,1,0-14.83Z"/><path class="cls-2" d="M124.74,92H75.26a7.07,7.07,0,0,0-7.06,7.06v10.15H66.69a2.16,2.16,0,0,0,0,4.31H74a2.16,2.16,0,1,0,0-4.31H72.51V99.09a2.75,2.75,0,0,1,2.75-2.75h49.48a2.75,2.75,0,0,1,2.75,2.75v40a2.75,2.75,0,0,1-2.75,2.75H75.26a2.75,2.75,0,0,1-2.75-2.75v-3.67a2.16,2.16,0,1,0-4.31,0v3.67a7.07,7.07,0,0,0,7.06,7.06h49.48a7.07,7.07,0,0,0,7.06-7.06v-40A7.07,7.07,0,0,0,124.74,92Z"/><path class="cls-2" d="M100,125.25a6.13,6.13,0,1,0-4.33-1.8A6.06,6.06,0,0,0,100,125.25Zm-1.27-7.44a1.78,1.78,0,0,1,2.54,0,1.8,1.8,0,1,1-2.54,0Z"/></g></svg>