<svg xmlns="http://www.w3.org/2000/svg" viewBox="0 0 200 200"><defs><style>.cls-1{fill:#ed1c24;}.cls-2{fill:#fff;}</style></defs><title>web icons Digitalistic [Converted]</title><g id="Layer_1" data-name="Layer 1"><circle class="cls-1" cx="100" cy="100" r="95"/><path class="cls-2" d="M146.19,83.93l-13.24-23A9.39,9.39,0,1,0,128,63.63l13.31,23.11a2.81,2.81,0,1,0,4.86-2.8ZM122.39,54.4a3.8,3.8,0,1,1,3.8,3.8A3.81,3.81,0,0,1,122.39,54.4Z"/><path class="cls-2" d="M136.33,132l13.78-22.68a9.37,9.37,0,1,0-4.73-3l-13.85,22.79a2.8,2.8,0,1,0,4.79,2.91ZM150.76,97a3.8,3.8,0,1,1-1.5,5.16A3.81,3.81,0,0,1,150.76,97Z"/><path class="cls-2" d="M53.44,116l13.24,23a9.41,9.41,0,1,0,4.93-2.69L58.3,113.22a2.8,2.8,0,0,0-4.86,2.8Zm23.8,29.54a3.8,3.8,0,1,1-3.8-3.8A3.81,3.81,0,0,1,77.24,145.55Z"/><path class="cls-2" d="M63.67,67.91,49.89,90.59a9.4,9.4,0,1,0,4.73,3L68.46,70.82a2.8,2.8,0,1,0-4.79-2.91ZM49.24,103a3.8,3.8,0,1,1,1.5-5.16A3.81,3.81,0,0,1,49.24,103Z"/><path class="cls-2" d="M108.78,52.08l-26.54,0a9.4,9.4,0,1,0-.89,7.28,9.58,9.58,0,0,0,.76-1.68l26.66,0a2.8,2.8,0,1,0,0-5.61ZM71.3,57.93a3.8,3.8,0,1,1,5.19-1.39A3.8,3.8,0,0,1,71.3,57.93Z"/><path class="cls-2" d="M87.69,145.86a2.8,2.8,0,0,0,2.81,2.8l26.66,0A9.44,9.44,0,1,0,117,143l-26.54,0A2.8,2.8,0,0,0,87.69,145.86Zm35.09,1.65A3.8,3.8,0,1,1,128,148.9,3.81,3.81,0,0,1,122.78,147.5Z"/><path class="cls-2" d="M99.55,109.2a9.21,9.21,0,1,1,9.21-9.21A9.22,9.22,0,0,1,99.55,109.2Zm0-13.19a4,4,0,1,0,4,4A4,4,0,0,0,99.55,96Z"/><path class="cls-2" d="M83.06,102.6A2.62,2.62,0,0,1,80.44,100,19.13,19.13,0,0,1,99.55,80.87a2.62,2.62,0,1,1,0,5.23A13.89,13.89,0,0,0,85.68,100,2.62,2.62,0,0,1,83.06,102.6Z"/><path class="cls-2" d="M99.55,119.09a2.62,2.62,0,0,1,0-5.23A13.89,13.89,0,0,0,113.42,100a2.62,2.62,0,0,1,5.23,0A19.13,19.13,0,0,1,99.55,119.09Z"/><path class="cls-2" d="M73.63,102.6A2.62,2.62,0,0,1,71,100,28.57,28.57,0,0,1,99.55,71.44a2.62,2.62,0,1,1,0,5.23A23.33,23.33,0,0,0,76.25,100,2.62,2.62,0,0,1,73.63,102.6Z"/><path class="cls-2" d="M99.55,128.52a2.62,2.62,0,0,1,0-5.24A23.33,23.33,0,0,0,122.86,100a2.62,2.62,0,0,1,5.23,0A28.57,28.57,0,0,1,99.55,128.52Z"/></g></svg>