<svg xmlns="http://www.w3.org/2000/svg" viewBox="0 0 200 200"><defs><style>.cls-1{fill:#ed1c24;}.cls-2{fill:#fff;}</style></defs><title>web icons Digitalistic [Converted]</title><g id="Layer_1" data-name="Layer 1"><circle class="cls-1" cx="100" cy="100" r="95"/><path class="cls-2" d="M135.61,135.31a2,2,0,0,0-1-1.71L111.15,120V89.75L122.07,59a2,2,0,0,0-.58-2.16l-4.92-4.22a2,2,0,0,0-.3-.21L91.82,38.27A2,2,0,0,0,89,39.33L76.73,74.64a2,2,0,0,0-.11.65v48.29l-11.24,6.49a2,2,0,0,0-1,1.71v7.07a2,2,0,0,0,1,1.71l36.69,21.18a2,2,0,0,0,2,0l30.57-17.65a2,2,0,0,0,1-1.71Zm-28.3-46.56a2,2,0,0,0-.11.66v51.82L105,142.48V89.74L116.21,57.5l1.68,1.44ZM80.57,75.62,91.91,42.89l21,12.11-11.7,33.77a2,2,0,0,0-.11.65v53.07l-20.5-11.84v-55Zm-4,52.52v3.64a2,2,0,0,0,1,1.71l24.46,14.12a2,2,0,0,0,2,0l6.12-3.53a2,2,0,0,0,1-1.71V124.61l18.53,10.7-26.62,15.36-32.74-18.9Zm-8.28,7.06,32.74,18.9v2.49L68.34,137.7ZM105,156.6V154.1l26.62-15.36v2.49Z"/><path class="cls-2" d="M109.89,54.77,94.7,46a2,2,0,0,0-2.86,1.07L82,75.52a2,2,0,0,0,.88,2.36L98,86.66a2,2,0,0,0,2.86-1.06l9.86-28.46A2,2,0,0,0,109.89,54.77ZM98,82l-11.7-6.76,8.54-24.65,11.7,6.76Z"/><path class="cls-2" d="M97.93,91.23,85.7,84.17a2,2,0,1,0-2,3.43l12.23,7.06a2,2,0,1,0,2-3.43Z"/></g></svg>