<svg xmlns="http://www.w3.org/2000/svg" viewBox="0 0 200 200"><defs><style>.cls-1{fill:#ed1c24;}.cls-2{fill:#fff;stroke:#ed1c24;stroke-miterlimit:10;stroke-width:3px;}</style></defs><title>rfid</title><g id="Layer_1" data-name="Layer 1"><circle class="cls-1" cx="100" cy="100" r="95"/><path class="cls-2" d="M148.08,99.18q0,20.26,0,40.51a7.49,7.49,0,0,1-7.56,7.56h-81a7.45,7.45,0,0,1-7.44-5.91,7.32,7.32,0,0,1-.15-1.6q0-11.94,0-23.89,0-19.43,0-38.87a3.77,3.77,0,0,1,1.15-2.78l22-22a3.82,3.82,0,0,1,1.68-1,2.27,2.27,0,0,1,.6-.09h63.36A7.42,7.42,0,0,1,148,57.27a9.43,9.43,0,0,1,.12,1.48Q148.08,79,148.08,99.18Zm-7.44-40.68H79.77a.72.72,0,0,0-.56.23L59.54,78.39a.68.68,0,0,0-.22.53q0,30.26,0,60.52v.36h81.32Z"/><path class="cls-2" d="M129.56,117.64V69.58H87.14a.68.68,0,0,0-.53.22l-16,16a.68.68,0,0,0-.22.53q0,21,0,42.07v.37h62.65A3.89,3.89,0,0,1,136,129.9a3.7,3.7,0,0,1-.66,5.66,3.82,3.82,0,0,1-2.07.6H66.73A3.73,3.73,0,0,1,63,133a2.54,2.54,0,0,1,0-.37q0-24.22,0-48.44a3.45,3.45,0,0,1,1.09-2.5l6.49-6.49L82.43,63.34a3.75,3.75,0,0,1,1.83-1.09,2.19,2.19,0,0,1,.48-.06q24.18,0,48.35,0A3.79,3.79,0,0,1,136.87,65a3.69,3.69,0,0,1,.1.81q0,27.76,0,55.52a3.68,3.68,0,0,1-3.69,3.66q-27.72,0-55.43,0a3.76,3.76,0,0,1-3.74-3.69c0-.1,0-.2,0-.31q0-16.43,0-32.86a4,4,0,0,1,1.24-3Q80.66,79.92,86,74.6a4.25,4.25,0,0,1,3.21-1.32c5.46,0,10.92,0,16.38,0h16.53a3.58,3.58,0,0,1,3.45,2.16,3.51,3.51,0,0,1,.33,1.46q0,13,0,26.05a3.69,3.69,0,0,1-3.6,3.6H111.1v.37q0,3,0,5.92A1,1,0,0,1,110,114H90c-.79,0-1.13-.35-1.13-1.13q0-10,0-20c0-.76.35-1.11,1.12-1.11h20c.77,0,1.13.36,1.13,1.14q0,2.93,0,5.86v.39h7.37V80.69H90.8a.64.64,0,0,0-.5.21l-8.58,8.59a.61.61,0,0,0-.21.47q0,13.7,0,27.39v.29Z"/></g></svg>