<svg xmlns="http://www.w3.org/2000/svg" viewBox="0 0 200 200"><defs><style>.cls-1{fill:#ed1c24;}.cls-2{fill:#fff;}</style></defs><title>web icons Digitalistic [Converted]</title><g id="Layer_1" data-name="Layer 1"><circle class="cls-1" cx="100" cy="100" r="95"/><path class="cls-2" d="M119.85,152.14a1.8,1.8,0,0,1-1-.33l-3.29-2.32a12.82,12.82,0,0,1-4.92-13.37,1.82,1.82,0,0,1,3.55.83,9.15,9.15,0,0,0,3.47,9.55l3.29,2.32a1.82,1.82,0,0,1-1.05,3.31"/><path class="cls-2" d="M80.15,152.14a1.82,1.82,0,0,1-1.05-3.31l3.29-2.32A9.15,9.15,0,0,0,85.85,137a1.82,1.82,0,1,1,3.55-.84,12.82,12.82,0,0,1-4.91,13.36l-3.29,2.32a1.8,1.8,0,0,1-1,.33"/><path class="cls-2" d="M53.54,56.39A4.56,4.56,0,0,0,49,60.94v69.23a4.56,4.56,0,0,0,4.55,4.55h92.91a4.56,4.56,0,0,0,4.55-4.55V60.94a4.56,4.56,0,0,0-4.55-4.55Zm92.91,82H53.54a8.2,8.2,0,0,1-8.19-8.2V60.94a8.2,8.2,0,0,1,8.19-8.2h92.91a8.2,8.2,0,0,1,8.19,8.2v69.23a8.2,8.2,0,0,1-8.19,8.2Z"/><path class="cls-2" d="M49,118.33H151V60.94a4.56,4.56,0,0,0-4.55-4.55H53.54A4.56,4.56,0,0,0,49,60.94ZM154.65,122H45.35v-61a8.2,8.2,0,0,1,8.19-8.2h92.91a8.2,8.2,0,0,1,8.19,8.2Z"/><path class="cls-2" d="M79.05,152.94a.91.91,0,0,0,0,1.82h41.9a.91.91,0,0,0,0-1.82Zm41.9,5.47H79.05a4.55,4.55,0,0,1,0-9.11h41.9a4.55,4.55,0,0,1,0,9.11Z"/><path class="cls-2" d="M83.6,95.34l14.57,7.29V84.95L83.6,79.12ZM100,107.4a1.83,1.83,0,0,1-.81-.19L81,98.1a1.82,1.82,0,0,1-1-1.63v-20a1.82,1.82,0,0,1,2.5-1.69L100.68,82a1.82,1.82,0,0,1,1.15,1.69v21.86A1.82,1.82,0,0,1,100,107.4Z"/><path class="cls-2" d="M101.82,84.95v17.68l14.57-7.29V79.12ZM100,107.4a1.83,1.83,0,0,1-1.82-1.82V83.71A1.82,1.82,0,0,1,99.32,82l18.22-7.29a1.82,1.82,0,0,1,2.5,1.69v20a1.82,1.82,0,0,1-1,1.63l-18.22,9.11a1.81,1.81,0,0,1-.81.19Z"/><path class="cls-2" d="M86.23,76.24,100,81.75l13.77-5.51L100,69.36ZM100,85.54a1.82,1.82,0,0,1-.68-.13L81.11,78.12A1.82,1.82,0,0,1,81,74.8l18.22-9.11a1.82,1.82,0,0,1,1.63,0L119,74.8a1.82,1.82,0,0,1-.14,3.32l-18.22,7.29a1.81,1.81,0,0,1-.68.13Z"/><path class="cls-2" d="M74.5,65.5H65.39a1.82,1.82,0,0,1,0-3.64H74.5a1.82,1.82,0,0,1,0,3.64"/><path class="cls-2" d="M58.1,65.5H56.28a1.82,1.82,0,0,1,0-3.64H58.1a1.82,1.82,0,0,1,0,3.64"/><path class="cls-2" d="M63.57,72.78H56.28a1.82,1.82,0,0,1,0-3.64h7.29a1.82,1.82,0,1,1,0,3.64"/><path class="cls-2" d="M74.5,72.78H70.85a1.82,1.82,0,0,1,0-3.64H74.5a1.82,1.82,0,0,1,0,3.64"/><path class="cls-2" d="M143.72,105.57h-9.11a1.82,1.82,0,1,1,0-3.64h9.11a1.82,1.82,0,1,1,0,3.64"/><path class="cls-2" d="M127.33,105.57H125.5a1.82,1.82,0,0,1,0-3.64h1.82a1.82,1.82,0,0,1,0,3.64"/><path class="cls-2" d="M132.79,112.86H125.5a1.82,1.82,0,0,1,0-3.64h7.29a1.82,1.82,0,1,1,0,3.64"/><path class="cls-2" d="M143.72,112.86h-3.64a1.82,1.82,0,0,1,0-3.64h3.64a1.82,1.82,0,1,1,0,3.64"/><path class="cls-2" d="M138.26,76.43a1.82,1.82,0,0,1-1.82-1.82V63.68a1.82,1.82,0,1,1,3.64,0V74.61a1.82,1.82,0,0,1-1.82,1.82"/><path class="cls-2" d="M143.72,71H132.79a1.82,1.82,0,0,1,0-3.64h10.93a1.82,1.82,0,1,1,0,3.64"/><path class="cls-2" d="M59.92,112.86a1.82,1.82,0,0,1-1.29-3.11L69.56,98.82a1.82,1.82,0,1,1,2.58,2.58L61.21,112.33a1.82,1.82,0,0,1-1.29.53"/><path class="cls-2" d="M70.85,112.86a1.82,1.82,0,0,1-1.29-.53L58.63,101.4a1.82,1.82,0,1,1,2.58-2.58l10.93,10.93a1.82,1.82,0,0,1-1.29,3.11"/></g></svg>